<svg id="Capa_1" data-name="Capa 1" xmlns="http://www.w3.org/2000/svg" viewBox="0 0 2781.23 128.06"><defs><style>.cls-1{fill:#fff;}</style></defs><path class="cls-1" d="M255.29,158q4,0,4,4V179.7c0,2.78-1.33,4.16-4,4.16-7.91.42-86.71-1.17-92.22,1.18-11,2.67-12.36,12.86-12.4,23.44.38,8-.92,30.66,1.18,37.74,2.43,11.15,12.3,12.81,22.9,12.76h80.54q4,0,4,4V280.7q0,4-4,4H173.66c-21.1.12-41.62-4.14-47.87-25.61-4.39-11.69-2.37-40-2.81-53.31-.37-20.95,6-39.89,27.33-45.15C164.89,155.37,238.61,159,255.29,158Z" transform="translate(-122.89 -157.34)"/><path class="cls-1" d="M302.35,158q4,0,4,4V209H391V162q0-4,4-4h19.55q4.15,0,4.16,4V280.7q0,4-4.16,4H395q-4,0-4-4V232.55H306.33V280.7q0,4-4,4H282.8c-2.78,0-4.16-1.33-4.16-4V162c0-2.65,1.38-4,4.16-4Z" transform="translate(-122.89 -157.34)"/><path class="cls-1" d="M523,158c10.6.22,15.18,3.86,20.81,13.76l59.91,108.78c1.16,2.34.79,4.21-2.17,4.16h-23a4.13,4.13,0,0,1-4.16-2.35L561.54,259H476.47c-17.11,29.27-4.93,25.87-40.18,25.7-13.06,4.28,59.34-112.23,57-112.94C500,157.61,509.76,157.33,523,158Zm-35.12,80h62.27C508.75,166.5,528.83,166.27,487.87,238Z" transform="translate(-122.89 -157.34)"/><path class="cls-1" d="M721.72,158c26.72,0,38.67,11.45,38.92,37.29,1.22,21.56-2.41,43.2-27,46.51l31,38.38a2.85,2.85,0,0,1,.54,2.71c.18,3.74-24.28,1-26.24,1.81-4.52,3-30.8-38.05-33.67-40H646.79c-2.13,44.57,9.83,40.17-23.53,40-9.51,5-1.81-119.6-4.17-121.27q0-5.43,5.44-5.43ZM646.79,222.6c9.48-1.6,76.32,4.08,82.35-4,5.43-4.82,5.42-27,0-31.86-5.8-8-70.85-2.41-80-4-1.57,0-2.35.72-2.35,2.17Z" transform="translate(-122.89 -157.34)"/><path class="cls-1" d="M920.64,158q4,0,4,4V179.7c0,2.78-1.33,4.16-4,4.16H830c-17.28-1.07-25.05,7.53-24.07,24.62,1.18,12.06-3.45,36.26,5.07,45.7,10.23,10.12,65.15,3.26,78.73,5.16,13,1,8.12-17.71,9-25.7,3.32-5.14-54.5-1.18-55.2-2.36-2.66,0-4-1.38-4-4.16V213.55c0-2.78,1.32-4.16,4-4.16H919q5.43,0,5.43,5.42V257c0,17.82-5.52,27.31-22.44,27.69-26.27-2.75-91.49,8.17-112.13-10.77-16.41-15-10.62-47.51-11.67-68.15-.38-20.95,6-39.89,27.33-45.15C820,155.27,903.9,159.09,920.64,158Z" transform="translate(-122.89 -157.34)"/><path class="cls-1" d="M1076.12,158q4.17,0,4.17,4v17.2q0,4-4.17,4c-7.91.47-85.17-1.22-90.77,1.18-11.84,2.64-12.52,14.46-12.4,25.25h102.27q4,0,4,4v14.3q0,4-4,4H973c-1,18.46,4,28.68,24.08,27.69h79.09q4.17,0,4.17,4v17.2q0,4-4.17,4c-26.43-2.85-98.29,8.37-118.64-10.77-16.4-15-10.63-47.5-11.68-68.15-.37-20.95,6-39.89,27.33-45.15C987.76,155.31,1059.45,159.07,1076.12,158Z" transform="translate(-122.89 -157.34)"/><path class="cls-1" d="M1178.38,158c2.33-4.25,51.22,67,52.67,67.51,1.36-.37,50.94-72.15,53-67.51h23.71a2.15,2.15,0,0,1,1.63,3.62l-65,84.35V280.7q0,4-4,4c-33.52.2-21.61,4.3-23.71-38.73-.53-2.34-66.43-83.94-64.71-86.79C1151.49,156.69,1177.32,158.5,1178.38,158Z" transform="translate(-122.89 -157.34)"/><path class="cls-1" d="M1420,158c33.44-.92,51.94,13.25,50.68,47.79-.55,13.38,1.56,41.5-2.71,53.3-10.13,38.24-74.58,22.4-103.9,25.61-33.52,1.05-51.8-13.3-50.68-47.78.56-13.34-1.61-41.51,2.81-53.22C1327.5,145.08,1390.18,161.33,1420,158Zm-78.92,76.93c-.93,17,6.75,25.73,24.08,24.61h53.75c10.61.06,20.46-1.61,22.9-12.76,1.94-12.74,1.92-38.11,0-50.86-2.44-11.14-12.29-12.81-22.9-12.76-8.52.62-58.25-1.27-65.43,1.18C1334.4,189,1343,220.61,1341.1,234.91Z" transform="translate(-122.89 -157.34)"/><path class="cls-1" d="M1516.49,158q4,0,4,4v72.22c0,10.58,1.31,21,12.4,23.62,7,2.44,53.56.66,61.81,1.18,17.5,1.09,24.94-7.61,23.89-24.8V162q0-4,4-4h19.73q4,0,4,4c-1.21,16.25,2.63,82.9-2.72,97.11-6.09,21.58-26.91,25.69-48,25.61-29.44-3.13-89,12.35-100-25.61-5.61-13.82-1.68-81.27-2.81-97.11q0-4,4.16-4Z" transform="translate(-122.89 -157.34)"/><path class="cls-1" d="M1772.6,158c26.72,0,38.67,11.46,38.92,37.29,1.22,21.56-2.41,43.2-27,46.51l31,38.38a2.85,2.85,0,0,1,.54,2.71c.18,3.74-24.28,1-26.24,1.81-4.52,3-30.8-38.05-33.67-40h-58.46c-2.13,44.57,9.83,40.17-23.53,40-9.51,5-1.81-119.6-4.17-121.27q0-5.43,5.44-5.43Zm-74.93,64.62c9.48-1.6,76.32,4.08,82.35-4,5.43-4.82,5.42-27,0-31.86-5.81-8-70.86-2.41-80-4-1.57,0-2.35.72-2.35,2.17Z" transform="translate(-122.89 -157.34)"/><path class="cls-1" d="M1984.55,158c54.3-.46,57.12,30.46,55.39,75.66.45,22.25-7.7,42.34-30.23,48.05-15.83,5.87-91.85,1.86-109.87,3-3.62,0-5.42-1.81-5.42-5.43V163.41c0-3.62,1.8-5.43,5.43-5.43Zm-62.44,99.19c-3.23,5.28,61,1.08,61.72,2.35,8.83-.16,16.28-.75,22.17-6.15,9.27-9.24,5.45-29.64,6.25-42-.19-8.8-.69-16.33-6.25-22.09-12.11-11.61-65.84-4.15-81.54-6.15-1.57,0-2.35.85-2.35,2.53Z" transform="translate(-122.89 -157.34)"/><path class="cls-1" d="M2165.19,158c26.71,0,38.67,11.46,38.91,37.29,1.23,21.56-2.41,43.2-27,46.51l31,38.38a2.85,2.85,0,0,1,.54,2.71c.18,3.74-24.29,1-26.25,1.81-4.51,3-30.8-38.05-33.66-40h-58.47c-2.12,44.57,9.83,40.17-23.52,40-9.52,5-1.82-119.6-4.17-121.27q0-5.43,5.43-5.43Zm-74.94,64.62c9.49-1.6,76.32,4.08,82.36-4,5.43-4.82,5.42-27,0-31.86-5.81-8-70.85-2.41-80-4-1.57,0-2.36.72-2.36,2.17Z" transform="translate(-122.89 -157.34)"/><path class="cls-1" d="M2352,158c2.78,0,4.16,1.33,4.16,4v17.2c0,2.65-1.38,4-4.16,4-7.91.47-85.17-1.22-90.77,1.18-11.84,2.64-12.53,14.46-12.4,25.25h102.27q4,0,4,4v14.3q0,4-4,4H2248.81c-1,18.46,4,28.68,24.07,27.69H2352c2.78,0,4.16,1.33,4.16,4v17.2c0,2.65-1.38,4-4.16,4-26.43-2.85-98.29,8.37-118.64-10.77-16.4-15-10.63-47.5-11.68-68.15-.37-20.95,6-39.89,27.33-45.15C2263.62,155.31,2335.3,159.07,2352,158Z" transform="translate(-122.89 -157.34)"/><path class="cls-1" d="M2457.32,158c10.6.22,15.18,3.86,20.82,13.76l59.91,108.78c1.15,2.34.79,4.21-2.17,4.16h-23a4.13,4.13,0,0,1-4.16-2.35L2495.88,259H2410.8c-17.1,29.27-4.92,25.87-40.18,25.7-13.21,4.65,59.43-112.45,57-112.94C2434.33,157.61,2444.1,157.33,2457.32,158Zm-35.11,80h62.26C2443.08,166.5,2463.17,166.27,2422.21,238Z" transform="translate(-122.89 -157.34)"/><path class="cls-1" d="M2589.27,158c10-.79,16.1,4.37,19.37,13.76l37.64,86.88c.8,2.38,6.47,2.32,7.24,0,4.44-7.38,38.35-95.3,45.07-98,6.64-4.74,23.33-1.85,31.14-2.62,13.53.14,15.61,5.76,15.92,18.82-2.4,1.91,5.28,113.2-4.16,107.88H2723c-2.66,0-4-1.33-4-4V186.22c.41-2.8-5-2.23-5.43-.37-8.62,12.79-35.51,95.32-51.86,97.93-11.69,1.57-28.41,3.54-35.29-8.6-2.47-2.13-38.56-84.62-41-89.32-.43-1.61-2.58-1.5-4-1.45-1,0-1.45.6-1.45,1.81V280.7q0,4-4,4H2557.6q-4.17,0-4.17-4c1.34-9.79-3.49-112.58,3.26-118.47C2560.84,155.5,2581.92,158.68,2589.27,158Z" transform="translate(-122.89 -157.34)"/><path class="cls-1" d="M2895.34,158q4,0,4,4v17.2c5.71,8.63-93.46,2-94.66,4-10-.61-9.92,9-9.6,16.29q0,10.14,9.42,10.14h67.87c20.59-.1,31.67,10.79,31.68,31.13.08,11.5,1.22,27.94-7.79,35.84q-7.78,8.15-24.25,8.14H2771.72q-4.17,0-4.17-4V263.5c-5.13-8.75,97.71-2,99.19-4,6.91.08,9.51-3.74,9.59-10.13.28-7.65.79-18.14-9.41-17.56h-67.87c-20.6.1-31.68-10.79-31.68-31.13-.18-11.28-.92-26.88,7.78-34.57q7.79-8.15,24.26-8.15Z" transform="translate(-122.89 -157.34)"/></svg>