<svg xmlns="http://www.w3.org/2000/svg" viewBox="0 0 116.95 123.67"><defs><style>.cls-1{fill:#d04e35;}</style></defs><title>tox</title><g id="Capa_2" data-name="Capa 2"><g id="Capa_1-2" data-name="Capa 1"><polygon class="cls-1" points="0 22.32 0 67.43 19.34 56.19 19.34 33.9 38.91 22.45 38.91 0 0 22.32"/><polygon class="cls-1" points="116.95 22.32 116.95 67.42 97.61 56.19 97.61 33.9 78.04 22.44 78.04 0 116.95 22.32"/><polygon class="cls-1" points="58.41 123.62 97.04 101.1 77.74 89.96 58.33 101.28 38.92 89.97 19.61 101.1 58.24 123.62 58.33 123.67 58.33 123.67 58.33 123.67 58.41 123.62"/><polygon class="cls-1" points="75 28.39 58.45 37.89 41.9 28.39 25.33 37.9 25.33 57.08 41.9 66.65 41.9 85.71 58.45 95.23 58.45 95.23 58.45 95.23 58.46 95.23 58.46 95.23 75.01 85.71 75.01 66.65 91.58 57.08 91.58 37.89 75 28.39"/></g></g></svg>