<svg xmlns="http://www.w3.org/2000/svg" viewBox="0 0 609.18 126.55"><defs><style>.cls-1{fill:#d04e35;}.cls-2{fill:#fff;}</style></defs><title>toxiikN</title><g id="Capa_2" data-name="Capa 2"><g id="Capa_1-2" data-name="Capa 1"><polygon class="cls-1" points="106.25 24.05 106.26 69.15 125.6 57.92 125.6 35.63 145.17 24.17 145.16 1.73 106.25 24.05"/><path class="cls-2" d="M105.26,70.89V23.47L146.17,0V24.75L126.6,36.2V58.5Zm2-46.26V67.42L124.6,57.34V35.05L144.17,23.6V3.46Z"/><polygon class="cls-1" points="223.21 24.04 223.21 69.15 203.87 57.92 203.87 35.62 184.29 24.17 184.29 1.73 223.21 24.04"/><path class="cls-2" d="M224.21,70.88,202.87,58.49V36.2L183.29,24.74V0l40.92,23.46ZM204.87,57.34l17.34,10.07V24.62L185.29,3.45V23.6l19.57,11.45Z"/><polygon class="cls-1" points="164.67 125.35 203.29 102.83 183.99 91.69 164.58 103.01 145.17 91.69 125.87 102.83 164.5 125.35 164.58 125.4 164.58 125.4 164.58 125.4 164.67 125.35"/><path class="cls-2" d="M164.58,126.55l-.59-.34-40.12-23.38,21.3-12.29,19.41,11.31L184,90.53l21.3,12.29Zm0-1.26,0,.06,0-.06Zm-36.77-22.46,36.72,21.41,36.72-21.41L184,92.85l-19.41,11.31L145.17,92.85Z"/><polygon class="cls-1" points="181.26 30.11 164.71 39.62 148.15 30.11 131.58 39.62 131.58 58.81 148.16 68.38 148.16 87.44 164.71 96.95 164.71 96.95 164.71 96.95 164.71 96.95 164.71 96.95 181.26 87.43 181.26 68.38 197.83 58.8 197.83 39.62 181.26 30.11"/><path class="cls-2" d="M164.71,98.11,147.16,88V69l-16.57-9.58V39L148.15,29l16.56,9.5L181.26,29,198.83,39V59.38L182.26,69V88ZM149.16,86.86l15.55,8.94,15.55-9v-19l16.57-9.57v-18l-15.57-8.93-16.55,9.5-16.56-9.5L132.58,40.2v18l16.57,9.57Z"/><polygon class="cls-1" points="1 1.6 99.46 1.6 99.46 30.85 66.79 30.85 66.79 124.95 33.53 124.95 33.53 30.85 1 30.85 1 1.6"/><path class="cls-2" d="M67.79,126H32.54V31.85H0V.6H100.46V31.85H67.79Zm-33.25-2H65.79V29.85H98.46V2.6H2V29.85H34.54Z"/><polygon class="cls-1" points="265.51 62.44 228.1 1.6 267 1.6 285.49 34.21 304.6 1.6 344.14 1.6 306.7 60.85 346.48 124.95 306.76 124.95 285.58 90.16 264.7 124.95 226.15 124.95 265.51 62.44"/><path class="cls-2" d="M348.28,126H306.2l-.29-.48L285.59,92.09,265.27,126H224.34l40-63.51L226.31.6h41.27L285.5,32.21,304,.6H346L307.88,60.86Zm-41-2h37.36l-39.16-63.1L342.33,2.6H305.17L285.48,36.21,266.41,2.6H229.89l36.8,59.85-.33.53L228,124h36.17l21.44-35.72Z"/><rect class="cls-1" x="402.17" y="1.6" width="33.11" height="123.34"/><path class="cls-2" d="M436.28,126H401.17V.6h35.11Zm-33.11-2h31.11V2.6H403.17Z"/><rect class="cls-1" x="354.81" y="1.6" width="33.11" height="123.34"/><path class="cls-2" d="M388.92,126H353.81V.6h35.11Zm-33.11-2h31.11V2.6H355.81Z"/><polygon class="cls-1" points="448.15 3.19 448.15 1.6 481.54 1.6 481.54 49.62 519.58 1.6 557.92 1.6 516.84 52.14 559.84 124.95 520.06 124.95 494.13 80.44 481.53 95.61 481.53 124.95 448.15 124.95 448.15 3.19"/><path class="cls-2" d="M561.59,126h-42.1L494,82.18,482.53,96v30H447.15V.6h35.39V46.74L519.1.6H560l-42,51.63Zm-41-2h37.45l-42.47-71.9L555.82,2.6H520.06L480.54,52.49V2.6H449.15V124h31.38V95.25L494.28,78.7Z"/><polygon class="cls-1" points="607.18 63.27 564.58 38.68 564.58 87.87 607.18 63.27"/><path class="cls-2" d="M563.58,89.6V37l45.6,26.32Zm2-49.19V86.13l39.6-22.86Z"/><path class="cls-1" d="M577,123.11a12,12,0,1,1,12-12A12.06,12.06,0,0,1,577,123.11ZM577,101a10,10,0,1,0,10,10A10.06,10.06,0,0,0,577,101Z"/><path class="cls-2" d="M577,124.11a13,13,0,1,1,13-13A13.06,13.06,0,0,1,577,124.11Zm-11-13a11,11,0,1,0,22.08,0,11,11,0,1,1-22.08,0Zm11-9a9,9,0,1,0,9,9A9.06,9.06,0,0,0,577,102Z"/><path class="cls-1" d="M572.84,104.43h4.32c2.67,0,4.73.94,4.73,3.81s-2.06,4-4.73,4h-2v5h-2.27Zm4.09,6c1.75,0,2.71-.73,2.71-2.19s-1-2-2.71-2h-1.82v4.18Zm-.2,1.21,1.65-1.36,4,7h-2.56Z"/><path class="cls-2" d="M584.12,118.26h-4.88l-2.76-5h-.37v5h-4.27V103.43h5.32c5,0,5.73,3,5.73,4.81a4.6,4.6,0,0,1-2.16,4.12Zm-3.7-2h.24l-1.82-3.18-.15,0Zm-6.58,0h.27V105.43h-.27Zm5.85-5.71,0,.06a2.65,2.65,0,0,0,1.16-2.37,2.36,2.36,0,0,0-1.62-2.51,2.65,2.65,0,0,1,1.37,2.51A3,3,0,0,1,579.69,110.55Zm-3.58-1.12h.82a2.84,2.84,0,0,0,1.13-.18l.46-.37a1.29,1.29,0,0,0,.12-.64c0-.51,0-1-1.71-1h-.82Z"/><polygon class="cls-1" points="106.25 24.05 106.26 69.15 125.6 57.92 125.6 35.63 145.17 24.17 145.16 1.73 106.25 24.05"/><polygon class="cls-1" points="223.21 24.04 223.21 69.15 203.87 57.92 203.87 35.62 184.29 24.17 184.29 1.73 223.21 24.04"/><polygon class="cls-1" points="164.67 125.35 203.29 102.83 183.99 91.69 164.58 103.01 145.17 91.69 125.87 102.83 164.5 125.35 164.58 125.4 164.58 125.4 164.58 125.4 164.67 125.35"/><polygon class="cls-1" points="181.26 30.11 164.71 39.62 148.15 30.11 131.58 39.62 131.58 58.81 148.16 68.38 148.16 87.44 164.71 96.95 164.71 96.95 164.71 96.95 164.71 96.95 164.71 96.95 181.26 87.43 181.26 68.38 197.83 58.8 197.83 39.62 181.26 30.11"/><polygon class="cls-1" points="1 1.6 99.46 1.6 99.46 30.85 66.79 30.85 66.79 124.95 33.53 124.95 33.53 30.85 1 30.85 1 1.6"/><polygon class="cls-1" points="265.51 62.44 228.1 1.6 267 1.6 285.49 34.21 304.6 1.6 344.14 1.6 306.7 60.85 346.48 124.95 306.76 124.95 285.58 90.16 264.7 124.95 226.15 124.95 265.51 62.44"/><rect class="cls-1" x="402.17" y="1.6" width="33.11" height="123.34"/><rect class="cls-1" x="354.81" y="1.6" width="33.11" height="123.34"/><polygon class="cls-1" points="448.15 3.19 448.15 1.6 481.54 1.6 481.54 49.62 519.58 1.6 557.92 1.6 516.84 52.14 559.84 124.95 520.06 124.95 494.13 80.44 481.53 95.61 481.53 124.95 448.15 124.95 448.15 3.19"/><polygon class="cls-1" points="607.18 63.27 564.58 38.68 564.58 87.87 607.18 63.27"/><path class="cls-1" d="M577,123.11a12,12,0,1,1,12-12A12.06,12.06,0,0,1,577,123.11ZM577,101a10,10,0,1,0,10,10A10.06,10.06,0,0,0,577,101Z"/><path class="cls-1" d="M572.84,104.43h4.32c2.67,0,4.73.94,4.73,3.81s-2.06,4-4.73,4h-2v5h-2.27Zm4.09,6c1.75,0,2.71-.73,2.71-2.19s-1-2-2.71-2h-1.82v4.18Zm-.2,1.21,1.65-1.36,4,7h-2.56Z"/></g></g></svg>