<svg xmlns="http://www.w3.org/2000/svg" viewBox="0 0 792 612"><defs><style>.cls-1{fill:#fff;}</style></defs><g id="logotipo"><polygon class="cls-1" points="198.17 266.55 198.17 311.65 217.51 300.42 217.51 278.13 237.08 266.67 237.08 244.23 198.17 266.55"/><polygon class="cls-1" points="315.12 266.54 315.12 311.65 295.78 300.42 295.78 278.12 276.2 266.67 276.2 244.23 315.12 266.54"/><polygon class="cls-1" points="256.58 367.85 295.21 345.33 275.9 334.19 256.49 345.51 237.08 334.19 217.78 345.33 256.41 367.85 256.49 367.9 256.49 367.9 256.49 367.9 256.58 367.85"/><polygon class="cls-1" points="273.17 272.61 256.62 282.12 240.06 272.62 223.49 282.12 223.49 301.31 240.07 310.88 240.07 329.94 256.62 339.45 256.62 339.46 256.62 339.45 256.62 339.46 256.62 339.45 273.17 329.93 273.17 310.88 289.74 301.3 289.74 282.12 273.17 272.61"/><polygon class="cls-1" points="92.91 244.1 191.37 244.1 191.37 273.35 158.7 273.35 158.7 367.45 125.45 367.45 125.45 273.35 92.91 273.35 92.91 244.1"/><polygon class="cls-1" points="357.42 304.94 320.01 244.1 358.91 244.1 377.4 276.71 396.51 244.1 436.05 244.1 398.61 303.35 438.39 367.45 398.67 367.45 377.49 332.66 356.61 367.45 318.06 367.45 357.42 304.94"/><rect class="cls-1" x="494.08" y="244.1" width="33.11" height="123.34"/><rect class="cls-1" x="446.72" y="244.1" width="33.11" height="123.34"/><polygon class="cls-1" points="540.06 245.69 540.06 244.1 573.45 244.1 573.45 292.12 611.49 244.1 649.83 244.1 608.75 294.64 651.75 367.45 611.97 367.45 586.04 322.94 573.45 338.11 573.45 367.45 540.06 367.45 540.06 245.69"/><polygon class="cls-1" points="699.09 305.77 656.49 281.18 656.49 330.37 699.09 305.77"/></g></svg>