<svg xmlns="http://www.w3.org/2000/svg" viewBox="0 0 422.42 86.27"><defs><style>.cls-1{fill:#fff;}</style></defs><title>toxiik</title><g id="Capa_2" data-name="Capa 2"><g id="Capa_1-2" data-name="Capa 1"><g id="logotipo"><polygon class="cls-1" points="73.35 15.64 73.35 47.07 86.83 39.25 86.83 23.71 100.47 15.73 100.47 0.09 73.35 15.64"/><polygon class="cls-1" points="154.85 15.64 154.85 47.07 141.37 39.25 141.37 23.71 127.73 15.73 127.73 0.09 154.85 15.64"/><polygon class="cls-1" points="114.05 86.23 140.97 70.54 127.52 62.78 113.99 70.67 100.47 62.78 87.02 70.54 113.94 86.23 113.99 86.27 113.99 86.27 113.99 86.27 114.05 86.23"/><polygon class="cls-1" points="125.61 19.87 114.08 26.49 102.54 19.87 91 26.49 91 39.87 102.55 46.54 102.55 59.82 114.08 66.44 114.08 66.45 114.08 66.44 114.08 66.45 114.08 66.44 125.61 59.81 125.61 46.54 137.16 39.86 137.16 26.49 125.61 19.87"/><polygon class="cls-1" points="0 0 68.61 0 68.61 20.38 45.85 20.38 45.85 85.96 22.68 85.96 22.68 20.38 0 20.38 0 0"/><polygon class="cls-1" points="184.32 42.4 158.25 0 185.36 0 198.25 22.72 211.56 0 239.12 0 213.03 41.29 240.75 85.96 213.07 85.96 198.31 61.71 183.76 85.96 156.9 85.96 184.32 42.4"/><rect class="cls-1" x="279.56" width="23.07" height="85.95"/><rect class="cls-1" x="246.55" width="23.07" height="85.95"/><polygon class="cls-1" points="311.6 1.11 311.6 0 334.86 0 334.86 33.46 361.37 0 388.09 0 359.46 35.22 389.43 85.96 361.71 85.96 343.64 54.94 334.86 65.51 334.86 85.96 311.6 85.96 311.6 1.11"/><polygon class="cls-1" points="422.42 42.98 392.73 25.84 392.73 60.12 422.42 42.98"/></g></g></g></svg>